<svg xmlns="http://www.w3.org/2000/svg" xml:space="preserve" width="2000" height="110" data-id="lg_24fDII9tK2dSZceBos" data-version="1" viewBox="0 0 2000 110"><g data-padding="20"><g transform="translate(13.05 2.09)scale(.962)"><path fill="#c3c3c3" d="M798.896-.17a55.17 55.17 0 1 0 0 110.34 55.17 55.17 0 1 0 0-110.34"/><rect width="437.128" height="107.35" x="405.162" y="-398.485" fill="none" rx="0" ry="0" transform="translate(461.93 399.93)"/><path fill="#c3c3c3" d="M879.726 20.36q4.85-3.14 10.41-4.89 5.56-1.76 10.88-1.76.66 0 1.47.05.8.04 2.33.14l-6.18 29.07q3.99-5.51 12.78-17.2 8.79-11.68 8.79-11.59h9.97l-26.41 30.4h.71q.34 0 1.1-.09h1.52q5.98 0 8.88 2.47 2.89 2.47 2.89 7.69 0 2.19-.47 4.99-.48 2.8-2.09 8.5-1.33 4.85-1.71 6.94t-.38 3.61q0 2.18 1 3.89t2.7 2.38q-2.75.76-5.17 1.19-2.42.42-4.23.42-3.7 0-5.56-1.56-1.85-1.57-1.85-4.8 0-1.62.48-3.94.47-2.33 1.89-7.75 1.62-5.89 2.14-8.59.53-2.71.53-4.71 0-3.23-1.43-4.84-1.43-1.62-4.27-1.62-.48 0-1.1.1-.62.09-2.04.28l-7.6 35.82h-13.68l13.77-64.6q-6.45 2.66-9.88 8.03-3.41 5.36-3.41 12.77 0 1.81.23 3.14.24 1.33.81 2.56.19.38.24.53.05.14.05.23-5.33 0-7.75-2.23t-2.42-6.98 3.18-9.5q3.19-4.75 8.88-8.55m67.93 4.47q0 3.14-2.23 5.32-2.23 2.19-5.37 2.19-3.13 0-5.32-2.19-2.18-2.18-2.18-5.32 0-3.13 2.18-5.36 2.19-2.24 5.32-2.24 3.14 0 5.37 2.24 2.23 2.23 2.23 5.36m-24.22 49.31q0-1.24.19-2.8.19-1.57.57-3.38l6.46-30.49h13.68l-6.84 32.3q-.19.85-.29 1.57-.09.71-.09 1.47 0 1.9.9 2.71.9.8 2.99.8 2.66 0 5.04-2.32 2.37-2.33 3.51-6.04h3.99q-3.04 8.65-8.17 13.11-5.13 4.47-11.78 4.47-4.75 0-7.46-2.99-2.7-3-2.7-8.41"/><path fill="#c3c3c3" d="M979.386 69.09q0 1.14-.09 2-.1.85-.29 1.61 1.9-1.14 3.71-2.37 1.8-1.24 3.13-2.38h3.99q-2.94 3.42-6.51 6.32-3.56 2.9-8.02 5.56-2.57 2.75-6.56 4.23-3.99 1.47-8.36 1.47-6.36 0-10.12-3.47-3.75-3.47-3.75-8.69 0-2.95 1.43-5.37 1.42-2.42 3.61-3.47 3.23-5.79 6.03-12.39 2.8-6.61 5.65-15.73l14.06-1.9q.29 7.13.67 13.02t.95 12.82q.28 3.99.38 5.61.09 1.61.09 3.13m-15.58-22.42q-1.23 3.9-2.99 8.13-1.76 4.22-4.7 9.83 1.04.47 1.61 1.33.57.85.57 1.99 0 1.81-1.23 3.23-1.24 1.43-2.95 1.43-.95 0-1.61-.33-.67-.34-.95-.91 0 3.52 1.37 5.09 1.38 1.56 4.42 1.56 3.9 0 6.08-2.28 2.19-2.28 2.19-6.55 0-1.33-.1-2.71-.09-1.38-.38-4.61-.47-4.46-.76-7.88-.28-3.42-.57-7.32"/><path fill="#c3c3c3" d="M1015.676 69.09q0 1.14-.09 2-.1.85-.29 1.61 1.9-1.14 3.7-2.37 1.81-1.24 3.14-2.38h3.99q-2.95 3.42-6.51 6.32t-8.02 5.56q-2.57 2.75-6.56 4.23-3.99 1.47-8.36 1.47-6.37 0-10.12-3.47t-3.75-8.69q0-2.95 1.42-5.37 1.43-2.42 3.62-3.47 3.23-5.79 6.03-12.39 2.8-6.61 5.65-15.73l14.06-1.9q.28 7.13.66 13.02.39 5.89.96 12.82.28 3.99.38 5.61.09 1.61.09 3.13m-15.58-22.42q-1.24 3.9-2.99 8.13-1.76 4.22-4.7 9.83 1.04.47 1.61 1.33.57.85.57 1.99 0 1.81-1.23 3.23-1.24 1.43-2.95 1.43-.95 0-1.62-.33-.66-.34-.94-.91 0 3.52 1.37 5.09 1.38 1.56 4.42 1.56 3.9 0 6.08-2.28 2.19-2.28 2.19-6.55 0-1.33-.1-2.71-.09-1.38-.38-4.61-.47-4.46-.76-7.88-.28-3.42-.57-7.32"/><path fill="#c3c3c3" d="M1037.996 76.32q2.47 0 4.42-2.13 1.95-2.14 3.18-6.23l6.46-30.49h13.68l-6.84 32.3q-.19.85-.28 1.57-.1.71-.1 1.47 0 1.9.91 2.71.9.8 2.99.8 2.47 0 4.46-2.18 2-2.19 3.23-6.18h4q-3.05 8.74-7.89 13.16-4.85 4.42-11.21 4.42-4.09 0-6.56-2.33t-2.85-6.7q-2.75 4.56-6.22 6.8-3.47 2.23-7.84 2.23-4.75 0-7.45-2.99-2.71-3-2.71-8.41 0-1.24.19-2.8.19-1.57.57-3.38l6.46-30.49h13.68l-6.84 32.3q-.19.76-.24 1.38-.05.61-.05 1.28 0 1.9.72 2.9.71.99 2.13.99m94.52-11.21 20.9-50.06h13.68l-9.98 69.92h-13.67l6.07-42.66-17.86 42.66h-13.01l1.9-42.85-15.87 42.85h-7.59l24.13-65.27q-7.32 2.47-11.21 7.98-3.9 5.51-3.9 13.4 0 1.9.24 3.28.24 1.37.81 2.51.19.38.23.53.05.14.05.23-5.13 0-7.65-2.13-2.51-2.14-2.51-6.51 0-4.56 2.8-9.26 2.8-4.71 7.74-8.6 4.46-3.52 9.59-5.46 5.13-1.95 10.07-1.95 1.81 0 3.66.33t3.57 1Zm48.84 11.21q2.47 0 4.42-2.13 1.95-2.14 3.18-6.23l6.46-30.49h13.68l-6.84 32.3q-.19.85-.28 1.57-.1.71-.1 1.47 0 1.9.9 2.71.9.8 2.99.8 2.47 0 4.47-2.18 1.99-2.19 3.23-6.18h3.99q-3.04 8.74-7.88 13.16-4.85 4.42-11.22 4.42-4.08 0-6.55-2.33t-2.85-6.7q-2.75 4.56-6.22 6.8-3.47 2.23-7.84 2.23-4.75 0-7.46-2.99-2.71-3-2.71-8.41 0-1.24.19-2.8.19-1.57.57-3.38l6.47-30.49h13.67l-6.84 32.3q-.18.76-.23 1.38-.05.61-.05 1.28 0 1.9.71 2.9.72.99 2.14.99"/><path fill="#c3c3c3" d="M1243.296 69.09q0 1.14-.09 2-.1.85-.29 1.61 1.9-1.14 3.7-2.37 1.81-1.24 3.14-2.38h3.99q-2.94 3.42-6.51 6.32-3.56 2.9-8.02 5.56-2.57 2.75-6.56 4.23-3.99 1.47-8.36 1.47-6.36 0-10.12-3.47-3.75-3.47-3.75-8.69 0-2.95 1.43-5.37 1.42-2.42 3.61-3.47 3.23-5.79 6.03-12.39 2.8-6.61 5.65-15.73l14.06-1.9q.28 7.13.66 13.02t.96 12.82q.28 3.99.38 5.61.09 1.61.09 3.13m-15.58-22.42q-1.24 3.9-2.99 8.13-1.76 4.22-4.71 9.83 1.05.47 1.62 1.33.57.85.57 1.99 0 1.81-1.23 3.23-1.24 1.43-2.95 1.43-.95 0-1.61-.33-.67-.34-.95-.91 0 3.52 1.37 5.09 1.38 1.56 4.42 1.56 3.89 0 6.08-2.28 2.18-2.28 2.18-6.55 0-1.33-.09-2.71t-.38-4.61q-.47-4.46-.76-7.88t-.57-7.32"/><path fill="#c3c3c3" d="M1273.216 24.83q0 3.14-2.24 5.32-2.23 2.19-5.37 2.19-3.13 0-5.32-2.19-2.18-2.18-2.18-5.32 0-3.13 2.18-5.36 2.19-2.24 5.32-2.24 3.14 0 5.37 2.24 2.24 2.23 2.24 5.36m-24.23 49.31q0-1.24.19-2.8.19-1.57.57-3.38l6.46-30.49h13.68l-6.84 32.3q-.19.85-.29 1.57-.09.71-.09 1.47 0 1.9.9 2.71.9.8 3 .8 2.65 0 5.03-2.32 2.37-2.33 3.51-6.04h3.99q-3.03 8.65-8.17 13.11-5.13 4.47-11.78 4.47-4.75 0-7.45-2.99-2.71-3-2.71-8.41"/><path fill="#c3c3c3" d="M1309.986 45.34q0 3.23-1.38 5.09-1.38 1.85-3.65 1.85-.76 0-1.62-.29-.86-.28-1.71-.85.57-1.52.85-2.95.29-1.42.29-2.66 0-1.9-.66-2.89-.67-1-2-1-4.18 0-8.17 9.64t-3.99 18.29q0 4.37 1.47 6.17 1.47 1.81 5.37 1.81 4.46 0 8.22-2.04 3.75-2.05 8.6-7.56h3.23q-5.51 8.93-11.98 13.26-6.46 4.32-14.15 4.32-7.32 0-11.07-3.8t-3.75-11.31q0-5.41 1.66-11.49 1.67-6.08 4.61-10.83 3.51-5.7 8.41-8.6 4.89-2.9 10.88-2.9 5.22 0 7.88 2.24 2.66 2.23 2.66 6.5"/><rect width="73.836" height="59.89" x="586.808" y="-374.755" fill="none" rx="0" ry="0" transform="translate(175.87 399.92)"/><path fill="#646464" d="M771.186 37.04q2.71-1.75 5.81-2.73t6.07-.98q.37 0 .82.03.45.02 1.3.08l-3.45 16.21q2.23-3.07 7.13-9.59t4.9-6.47h5.57l-14.74 16.96h.4q.19 0 .61-.05h.85q3.34 0 4.95 1.38 1.62 1.38 1.62 4.29 0 1.22-.27 2.78-.26 1.57-1.16 4.75-.74 2.7-.96 3.87-.21 1.16-.21 2.01 0 1.22.56 2.17.56.96 1.51 1.33-1.54.42-2.89.66t-2.36.24q-2.06 0-3.1-.87-1.03-.88-1.03-2.68 0-.9.26-2.2.27-1.3 1.06-4.32.9-3.29 1.2-4.8.29-1.51.29-2.62 0-1.8-.8-2.7-.79-.9-2.38-.9-.27 0-.61.05l-1.14.16-4.24 19.98h-7.63l7.68-36.04q-3.6 1.48-5.51 4.48-1.91 2.99-1.91 7.13 0 1 .13 1.75.14.74.45 1.43.11.21.14.29.02.08.02.13-2.96 0-4.32-1.25-1.35-1.24-1.35-3.89t1.78-5.3q1.77-2.65 4.95-4.77M819.316 62l11.66-27.93h7.63l-5.57 39.01h-7.63l3.39-23.8-9.96 23.8h-7.26l1.06-23.9-8.85 23.9h-4.24l13.46-36.41q-4.08 1.38-6.25 4.45-2.18 3.07-2.18 7.47 0 1.06.14 1.83.13.77.45 1.41.1.21.13.29t.03.13q-2.87 0-4.27-1.19-1.41-1.19-1.41-3.63 0-2.55 1.57-5.17 1.56-2.62 4.32-4.8 2.49-1.96 5.35-3.04 2.86-1.09 5.62-1.09 1.01 0 2.04.18 1.03.19 1.99.56Z"/></g><path fill="transparent" stroke="transparent" stroke-width=".997" d="M718.6.17h569.24v109.66H718.6z"/></g></svg>